<svg width="42" height="42" viewBox="0 0 42 42" fill="none" xmlns="http://www.w3.org/2000/svg">
<path d="M7.875 7.875C7.875 6.48261 8.42812 5.14726 9.41269 4.16269C10.3973 3.17812 11.7326 2.625 13.125 2.625C14.5174 2.625 15.8527 3.17812 16.8373 4.16269C17.8219 5.14726 18.375 6.48261 18.375 7.875C18.375 9.26739 17.8219 10.6027 16.8373 11.5873C15.8527 12.5719 14.5174 13.125 13.125 13.125C11.7326 13.125 10.3973 12.5719 9.41269 11.5873C8.42812 10.6027 7.875 9.26739 7.875 7.875V7.875ZM25.6699 12.033L25.7801 12.117C26.8939 12.9426 28.289 13.2941 29.661 13.0948C31.033 12.8956 32.2705 12.1617 33.1034 11.0534C33.9363 9.94515 34.297 8.55239 34.1068 7.17911C33.9166 5.80584 33.191 4.56354 32.0882 3.72333C30.9854 2.88312 29.5951 2.51322 28.2206 2.69434C26.8461 2.87547 25.599 3.59292 24.7515 4.69013C23.9041 5.78733 23.525 7.17521 23.697 8.55087C23.8691 9.92654 24.5783 11.1783 25.6699 12.033V12.033ZM16.4535 15.75C16.7832 15.1257 17.2355 14.5743 17.7832 14.1288C18.3309 13.6833 18.9629 13.3528 19.6413 13.1572C20.3197 12.9616 21.0305 12.9048 21.7314 12.9903C22.4322 13.0757 23.1086 13.3017 23.7201 13.6546C24.3316 14.0075 24.8657 14.4801 25.2903 15.0442C25.7149 15.6083 26.0214 16.2522 26.1914 16.9374C26.3614 17.6227 26.3915 18.3352 26.2798 19.0323C26.1681 19.7295 25.9169 20.3969 25.5412 20.9948C24.8186 22.1448 23.6784 22.9701 22.3601 23.2972C21.0418 23.6242 19.6481 23.4277 18.4717 22.7487C17.2953 22.0698 16.4278 20.9614 16.0514 19.6563C15.6751 18.3512 15.8192 16.9511 16.4535 15.75V15.75ZM6.5625 15.75H13.5713C13.1047 17.0823 13.0033 18.5153 13.2775 19.9C13.5516 21.2848 14.1915 22.571 15.1305 23.625H14.4375C13.0841 23.6248 11.7638 24.0429 10.6572 24.822C9.55059 25.601 8.71179 26.7031 8.25562 27.9772C7.3745 27.6233 6.5495 27.1432 5.8065 26.5519C3.8325 24.9637 2.625 22.617 2.625 19.6875C2.625 18.6432 3.03984 17.6417 3.77827 16.9033C4.51669 16.1648 5.51821 15.75 6.5625 15.75V15.75ZM27.5625 23.625C28.9155 23.625 30.2354 24.0431 31.3416 24.8222C32.4478 25.6013 33.2861 26.7033 33.7418 27.9772C34.6343 27.6124 35.4611 27.1372 36.1935 26.5519C38.1675 24.9637 39.375 22.617 39.375 19.6875C39.375 18.6432 38.9602 17.6417 38.2217 16.9033C37.4833 16.1648 36.4818 15.75 35.4375 15.75H28.4287C28.7175 16.5716 28.875 17.4563 28.875 18.375C28.8774 20.3126 28.1631 22.1825 26.8695 23.625H27.5625ZM31.2034 28.686C31.395 29.148 31.5 29.6572 31.5 30.1875C31.5 33.117 30.2951 35.4637 28.3185 37.0519C26.3734 38.6137 23.7641 39.375 21 39.375C18.2359 39.375 15.6266 38.6137 13.6815 37.0519C11.7075 35.4637 10.5 33.117 10.5 30.1875C10.4986 29.67 10.5995 29.1574 10.7969 28.679C10.9943 28.2007 11.2843 27.7661 11.6502 27.4002C12.0161 27.0343 12.4507 26.7443 12.929 26.5469C13.4074 26.3495 13.92 26.2486 14.4375 26.25H27.5625C28.3424 26.2498 29.1048 26.4812 29.753 26.9149C30.4012 27.3486 30.906 27.965 31.2034 28.686Z" fill="white"/>
</svg>
