<svg width="42" height="42" viewBox="0 0 42 42" fill="none" xmlns="http://www.w3.org/2000/svg">
<path d="M42 21C42 23.8438 41.444 26.5599 40.332 29.1484C39.2201 31.737 37.7253 33.9701 35.8477 35.8477C33.9701 37.7253 31.737 39.2201 29.1484 40.332C26.5599 41.444 23.8438 42 21 42C17.8646 42 14.8841 41.3392 12.0586 40.0176C9.23307 38.696 6.82682 36.832 4.83984 34.4258C4.71224 34.2435 4.65299 34.0384 4.66211 33.8105C4.67122 33.5827 4.7487 33.3958 4.89453 33.25L8.64062 29.4766C8.82292 29.3125 9.05078 29.2305 9.32422 29.2305C9.61589 29.2669 9.82552 29.3763 9.95312 29.5586C11.2839 31.2904 12.9154 32.6302 14.8477 33.5781C16.7799 34.526 18.8307 35 21 35C22.8958 35 24.7051 34.6309 26.4277 33.8926C28.1504 33.1543 29.6406 32.1562 30.8984 30.8984C32.1562 29.6406 33.1543 28.1504 33.8926 26.4277C34.6309 24.7051 35 22.8958 35 21C35 19.1042 34.6309 17.2949 33.8926 15.5723C33.1543 13.8496 32.1562 12.3594 30.8984 11.1016C29.6406 9.84375 28.1504 8.8457 26.4277 8.10742C24.7051 7.36914 22.8958 7 21 7C19.2135 7 17.5 7.32357 15.8594 7.9707C14.2188 8.61784 12.7604 9.54297 11.4844 10.7461L15.2305 14.5195C15.7956 15.0664 15.9232 15.6953 15.6133 16.4062C15.3034 17.1354 14.7656 17.5 14 17.5H1.75C1.27604 17.5 0.865885 17.3268 0.519531 16.9805C0.173177 16.6341 0 16.224 0 15.75V3.5C0 2.73438 0.364583 2.19661 1.09375 1.88672C1.80469 1.57682 2.43359 1.70443 2.98047 2.26953L6.53516 5.79688C8.48568 3.95573 10.7142 2.5293 13.2207 1.51758C15.7272 0.505859 18.3203 0 21 0C23.8438 0 26.5599 0.55599 29.1484 1.66797C31.737 2.77995 33.9701 4.27474 35.8477 6.15234C37.7253 8.02995 39.2201 10.263 40.332 12.8516C41.444 15.4401 42 18.1562 42 21ZM24.5 13.125V25.375C24.5 25.6302 24.418 25.8398 24.2539 26.0039C24.0898 26.168 23.8802 26.25 23.625 26.25H14.875C14.6198 26.25 14.4102 26.168 14.2461 26.0039C14.082 25.8398 14 25.6302 14 25.375V23.625C14 23.3698 14.082 23.1602 14.2461 22.9961C14.4102 22.832 14.6198 22.75 14.875 22.75H21V13.125C21 12.8698 21.082 12.6602 21.2461 12.4961C21.4102 12.332 21.6198 12.25 21.875 12.25H23.625C23.8802 12.25 24.0898 12.332 24.2539 12.4961C24.418 12.6602 24.5 12.8698 24.5 13.125Z" fill="white"/>
</svg>
