<svg width="42" height="42" viewBox="0 0 42 42" fill="none" xmlns="http://www.w3.org/2000/svg">
<path d="M9.898 35.8383C9.64674 36.0567 9.33836 36.199 9.00906 36.2484C8.67977 36.2977 8.34323 36.2521 8.03895 36.1169C7.73468 35.9816 7.4753 35.7624 7.29127 35.4849C7.10724 35.2074 7.0062 34.8832 7 34.5503V30.625C6.07174 30.625 5.1815 30.2563 4.52513 29.5999C3.86875 28.9435 3.5 28.0533 3.5 27.125V14.875C3.5 13.9467 3.86875 13.0565 4.52513 12.4001C5.1815 11.7437 6.07174 11.375 7 11.375H26.25C27.1783 11.375 28.0685 11.7437 28.7249 12.4001C29.3813 13.0565 29.75 13.9467 29.75 14.875V27.125C29.75 28.0533 29.3813 28.9435 28.7249 29.5999C28.0685 30.2563 27.1783 30.625 26.25 30.625H17.5053L9.898 35.8383V35.8383ZM31.5 21.9048C31.4944 22.12 31.4944 22.3353 31.5 22.5505V21.903C31.5087 21.7158 31.5105 19.3708 31.507 14.8698C31.5056 13.4783 30.9519 12.1443 29.9675 11.1608C28.983 10.1774 27.6485 9.625 26.257 9.625H12.25V7.875C12.25 6.94674 12.6187 6.0565 13.2751 5.40013C13.9315 4.74375 14.8217 4.375 15.75 4.375H35C35.9283 4.375 36.8185 4.74375 37.4749 5.40013C38.1313 6.0565 38.5 6.94674 38.5 7.875V20.125C38.5 21.0533 38.1313 21.9435 37.4749 22.5999C36.8185 23.2563 35.9283 23.625 35 23.625V27.5503C34.9938 27.8832 34.8928 28.2074 34.7087 28.4849C34.5247 28.7624 34.2653 28.9816 33.961 29.1169C33.6568 29.2521 33.3202 29.2977 32.9909 29.2484C32.6616 29.199 32.3533 29.0567 32.102 28.8383L31.5 28.4253V21.9048Z" fill="white"/>
</svg>
