<svg width="42" height="42" viewBox="0 0 42 42" fill="none" xmlns="http://www.w3.org/2000/svg">
<path d="M36.0938 4.59375H5.90625C5.18027 4.59375 4.59375 5.18027 4.59375 5.90625V36.0938C4.59375 36.8197 5.18027 37.4062 5.90625 37.4062H36.0938C36.8197 37.4062 37.4062 36.8197 37.4062 36.0938V5.90625C37.4062 5.18027 36.8197 4.59375 36.0938 4.59375ZM15.5859 28.5469C14.6795 28.5469 13.9453 27.8127 13.9453 26.9062C13.9453 25.9998 14.6795 25.2656 15.5859 25.2656C16.4924 25.2656 17.2266 25.9998 17.2266 26.9062C17.2266 27.8127 16.4924 28.5469 15.5859 28.5469ZM15.5859 22.6406C14.6795 22.6406 13.9453 21.9064 13.9453 21C13.9453 20.0936 14.6795 19.3594 15.5859 19.3594C16.4924 19.3594 17.2266 20.0936 17.2266 21C17.2266 21.9064 16.4924 22.6406 15.5859 22.6406ZM15.5859 16.7344C14.6795 16.7344 13.9453 16.0002 13.9453 15.0938C13.9453 14.1873 14.6795 13.4531 15.5859 13.4531C16.4924 13.4531 17.2266 14.1873 17.2266 15.0938C17.2266 16.0002 16.4924 16.7344 15.5859 16.7344ZM28.0547 27.8906C28.0547 28.0711 27.907 28.2188 27.7266 28.2188H20.1797C19.9992 28.2188 19.8516 28.0711 19.8516 27.8906V25.9219C19.8516 25.7414 19.9992 25.5938 20.1797 25.5938H27.7266C27.907 25.5938 28.0547 25.7414 28.0547 25.9219V27.8906ZM28.0547 21.9844C28.0547 22.1648 27.907 22.3125 27.7266 22.3125H20.1797C19.9992 22.3125 19.8516 22.1648 19.8516 21.9844V20.0156C19.8516 19.8352 19.9992 19.6875 20.1797 19.6875H27.7266C27.907 19.6875 28.0547 19.8352 28.0547 20.0156V21.9844ZM28.0547 16.0781C28.0547 16.2586 27.907 16.4062 27.7266 16.4062H20.1797C19.9992 16.4062 19.8516 16.2586 19.8516 16.0781V14.1094C19.8516 13.9289 19.9992 13.7812 20.1797 13.7812H27.7266C27.907 13.7812 28.0547 13.9289 28.0547 14.1094V16.0781Z" fill="white"/>
</svg>
