<svg width="42" height="42" viewBox="0 0 42 42" fill="none" xmlns="http://www.w3.org/2000/svg">
<path d="M24.1849 38.5H17.8149C17.4158 38.5001 17.0286 38.3637 16.7177 38.1135C16.4067 37.8633 16.1906 37.5144 16.1052 37.1245L15.3929 33.8275C14.4428 33.4112 13.5418 32.8906 12.7067 32.2753L9.49192 33.299C9.11141 33.4203 8.70083 33.4079 8.32838 33.2637C7.95593 33.1195 7.64401 32.8522 7.44442 32.5063L4.25242 26.992C4.05492 26.6457 3.98079 26.2427 4.04214 25.8488C4.1035 25.4549 4.29671 25.0935 4.59017 24.8238L7.08392 22.5488C6.97051 21.5182 6.97051 20.4783 7.08392 19.4477L4.59017 17.178C4.29629 16.9081 4.10282 16.5464 4.04146 16.1521C3.98009 15.7579 4.05448 15.3544 4.25242 15.008L7.43742 9.49025C7.63701 9.1443 7.94893 8.87703 8.32138 8.73283C8.69383 8.58862 9.10441 8.57616 9.48492 8.6975L12.6997 9.72125C13.1267 9.40625 13.5712 9.11225 14.0297 8.84625C14.4724 8.59775 14.9274 8.372 15.3929 8.17075L16.1069 4.87725C16.1919 4.48735 16.4076 4.1382 16.7183 3.88771C17.0289 3.63722 17.4159 3.50042 17.8149 3.5H24.1849C24.584 3.50042 24.9709 3.63722 25.2816 3.88771C25.5922 4.1382 25.8079 4.48735 25.8929 4.87725L26.6139 8.1725C27.5629 8.59122 28.4635 9.11168 29.3002 9.72475L32.5167 8.701C32.8969 8.5801 33.3071 8.5928 33.6792 8.73698C34.0513 8.88116 34.3629 9.14818 34.5624 9.49375L37.7474 15.0115C38.1534 15.7238 38.0134 16.625 37.4097 17.1798L34.9159 19.4547C35.0293 20.4853 35.0293 21.5252 34.9159 22.5557L37.4097 24.8308C38.0134 25.3873 38.1534 26.2868 37.7474 26.999L34.5624 32.5167C34.3628 32.8627 34.0509 33.13 33.6785 33.2742C33.306 33.4184 32.8954 33.4308 32.5149 33.3095L29.3002 32.2857C28.4657 32.9006 27.5653 33.4206 26.6157 33.8362L25.8929 37.1245C25.8076 37.5141 25.5917 37.8628 25.2811 38.113C24.9705 38.3631 24.5837 38.4997 24.1849 38.5V38.5ZM20.9929 14C19.1364 14 17.3559 14.7375 16.0432 16.0503C14.7304 17.363 13.9929 19.1435 13.9929 21C13.9929 22.8565 14.7304 24.637 16.0432 25.9497C17.3559 27.2625 19.1364 28 20.9929 28C22.8494 28 24.6299 27.2625 25.9427 25.9497C27.2554 24.637 27.9929 22.8565 27.9929 21C27.9929 19.1435 27.2554 17.363 25.9427 16.0503C24.6299 14.7375 22.8494 14 20.9929 14V14Z" fill="white"/>
</svg>
