<svg width="42" height="42" viewBox="0 0 42 42" fill="none" xmlns="http://www.w3.org/2000/svg">
<path d="M20.125 3.5C11.9175 3.5 5.25 10.1675 5.25 18.375C5.25 26.5825 11.9175 33.25 20.125 33.25H21V38.5C29.505 34.405 35 26.25 35 18.375C35 10.1675 28.3325 3.5 20.125 3.5ZM21.875 28.875H18.375V25.375H21.875V28.875ZM22.575 20.51C22.5575 20.5275 22.54 20.5625 22.5225 20.5975C22.435 20.7375 22.3475 20.8775 22.2775 21.0175C22.2425 21.07 22.225 21.14 22.2075 21.21C22.155 21.3325 22.1025 21.455 22.0675 21.5775C21.945 21.945 21.8925 22.33 21.8925 22.7675H18.375C18.375 21.875 18.515 21.1225 18.725 20.4925C18.725 20.475 18.725 20.4575 18.7425 20.44C18.76 20.37 18.8125 20.335 18.83 20.265C18.935 19.985 19.0575 19.74 19.215 19.495C19.2675 19.4075 19.3375 19.32 19.39 19.2325C19.4425 19.1625 19.4775 19.075 19.53 19.0225L19.5475 19.04C21.0175 17.115 23.415 16.52 23.6075 14.35C23.765 12.635 22.54 10.9725 20.86 10.6225C19.04 10.2375 17.395 11.305 16.835 12.8625C16.59 13.4925 16.0125 14 15.295 14H14.945C13.895 14 13.125 12.9675 13.4225 11.9525C13.9129 10.3432 14.9661 8.96425 16.3896 8.06772C17.8131 7.1712 19.5118 6.81703 21.175 7.07C24.1325 7.5075 26.495 9.94 27.0025 12.8975C27.7725 17.1675 24.15 18.2 22.575 20.51V20.51Z" fill="white"/>
</svg>
