<svg width="42" height="42" viewBox="0 0 42 42" fill="none" xmlns="http://www.w3.org/2000/svg">
<path d="M34.1716 5.77501H25.7716C25.4358 4.77702 24.7952 3.90961 23.9402 3.29513C23.0851 2.68065 22.0587 2.3501 21.0058 2.3501C19.9528 2.3501 18.9264 2.68065 18.0713 3.29513C17.2163 3.90961 16.5757 4.77702 16.2399 5.77501H8.16659C7.88087 5.73368 7.58964 5.75342 7.31212 5.83291C7.0346 5.91241 6.77709 6.04985 6.55658 6.23618C6.33608 6.42251 6.15759 6.65348 6.03291 6.91385C5.90823 7.17422 5.84018 7.45807 5.83325 7.74667V37.6367C5.83478 37.8971 5.88759 38.1547 5.98868 38.3948C6.08977 38.6348 6.23714 38.8526 6.4224 39.0357C6.60765 39.2188 6.82715 39.3636 7.06837 39.4618C7.30959 39.5601 7.5678 39.6099 7.82825 39.6083H34.1716C34.432 39.6099 34.6903 39.5601 34.9315 39.4618C35.1727 39.3636 35.3922 39.2188 35.5774 39.0357C35.7627 38.8526 35.9101 38.6348 36.0112 38.3948C36.1122 38.1547 36.1651 37.8971 36.1666 37.6367V7.74667C36.1651 7.48622 36.1122 7.22861 36.0112 6.98857C35.9101 6.74852 35.7627 6.53074 35.5774 6.34765C35.3922 6.16456 35.1727 6.01976 34.9315 5.92151C34.6903 5.82325 34.432 5.77347 34.1716 5.77501V5.77501ZM13.1716 9.27501C13.1716 8.96559 13.2945 8.66884 13.5133 8.45005C13.7321 8.23126 14.0288 8.10834 14.3383 8.10834H18.3516V7.37334C18.3516 6.65703 18.6361 5.97007 19.1426 5.46356C19.6491 4.95706 20.3361 4.67251 21.0524 4.67251C21.7687 4.67251 22.4557 4.95706 22.9622 5.46356C23.4687 5.97007 23.7533 6.65703 23.7533 7.37334V8.16667H27.7666C28.076 8.16667 28.3728 8.28959 28.5915 8.50838C28.8103 8.72718 28.9333 9.02392 28.9333 9.33334V11.4333H13.1249L13.1716 9.27501ZM30.1116 20.0433L19.4716 30.6833L13.3583 24.57C13.0488 24.2606 12.875 23.8409 12.875 23.4033C12.875 22.9658 13.0488 22.5461 13.3583 22.2367C13.6677 21.9273 14.0873 21.7534 14.5249 21.7534C14.9625 21.7534 15.3822 21.9273 15.6916 22.2367L19.4949 26.04L27.8249 17.71C28.1343 17.4006 28.554 17.2268 28.9916 17.2268C29.4292 17.2268 29.8488 17.4006 30.1583 17.71C30.4677 18.0194 30.6415 18.4391 30.6415 18.8767C30.6415 19.3143 30.4677 19.7339 30.1583 20.0433H30.1116Z" fill="white"/>
</svg>
